<?xml version="1.0" standalone="no"?>
<!DOCTYPE svg PUBLIC "-//W3C//DTD SVG 20010904//EN"
 "http://www.w3.org/TR/2001/REC-SVG-20010904/DTD/svg10.dtd">
<svg version="1.0" xmlns="http://www.w3.org/2000/svg"
 width="650.000000pt" height="650.000000pt" viewBox="0 0 650.000000 650.000000"
 preserveAspectRatio="xMidYMid meet">
<metadata>
Created by potrace 1.14, written by Peter Selinger 2001-2017
</metadata>
<g transform="translate(0.000000,650.000000) scale(0.100000,-0.100000)"
fill="#000000" stroke="none">
<path d="M2985 6389 c-92 -7 -167 -16 -220 -24 -16 -3 -46 -7 -65 -10 -19 -2
-60 -9 -90 -15 -30 -6 -65 -12 -77 -14 -11 -2 -30 -7 -41 -10 -11 -4 -29 -8
-39 -10 -10 -2 -38 -9 -63 -16 -25 -7 -50 -13 -57 -14 -7 -1 -16 -5 -19 -9 -4
-4 -16 -7 -26 -7 -10 0 -26 -4 -36 -9 -9 -5 -62 -24 -117 -43 -55 -18 -103
-37 -107 -43 -4 -5 -8 -7 -8 -3 0 4 -18 -2 -40 -13 -21 -11 -46 -22 -54 -23
-8 -1 -20 -7 -27 -13 -8 -6 -31 -16 -51 -22 -20 -7 -38 -17 -40 -22 -2 -5 -13
-11 -26 -12 -12 0 -22 -4 -22 -7 0 -4 -16 -12 -35 -20 -19 -8 -35 -17 -35 -21
0 -4 -12 -12 -27 -18 -41 -16 -276 -161 -293 -181 -3 -3 -21 -17 -40 -30 -19
-13 -37 -27 -40 -30 -3 -3 -20 -16 -38 -29 -19 -13 -44 -33 -56 -45 -29 -27
-125 -109 -140 -118 -6 -4 -7 -8 -3 -8 5 0 -6 -12 -24 -27 -85 -71 -259 -263
-337 -372 -18 -25 -36 -48 -40 -51 -24 -18 -203 -306 -195 -314 4 -3 2 -6 -4
-6 -11 0 -183 -352 -183 -375 0 -4 -7 -21 -15 -38 -13 -30 -73 -204 -80 -237
-2 -8 -8 -29 -14 -47 -5 -17 -7 -34 -3 -37 3 -3 0 -6 -6 -6 -7 0 -11 -3 -10
-7 1 -5 -2 -30 -7 -58 -5 -27 -10 -54 -10 -60 -1 -5 -5 -17 -8 -25 -6 -16 -19
-83 -22 -115 -1 -11 -5 -38 -9 -60 -31 -187 -41 -521 -22 -730 4 -33 8 -82 11
-110 2 -27 6 -60 9 -71 2 -12 7 -39 11 -60 18 -108 49 -251 70 -324 9 -30 19
-64 22 -75 2 -11 7 -27 11 -35 7 -20 7 -21 17 -55 34 -120 239 -561 268 -573
4 -2 7 -8 7 -14 0 -6 14 -30 30 -55 16 -24 30 -47 30 -52 0 -4 8 -16 18 -27
10 -10 28 -35 40 -55 12 -20 35 -53 52 -75 16 -21 33 -43 37 -49 71 -92 175
-208 292 -324 197 -195 205 -199 215 -116 9 70 21 148 31 195 3 14 8 45 11 70
3 25 8 54 10 65 11 55 45 269 59 370 3 28 9 59 13 70 3 11 7 29 8 40 1 11 4
37 8 58 3 20 9 54 12 75 3 20 14 91 25 157 11 66 22 133 24 148 2 16 6 40 9
55 3 15 8 45 12 67 3 22 8 49 9 60 4 19 12 77 20 137 1 15 5 30 8 35 2 4 8 33
12 63 4 30 8 66 10 80 5 43 16 104 22 135 4 17 8 39 9 50 4 31 15 107 20 135
3 14 9 50 15 80 19 110 21 120 30 120 5 0 10 -4 10 -10 2 -16 4 -22 28 -98 13
-40 24 -78 25 -85 2 -14 64 -203 75 -232 16 -38 54 -168 54 -182 0 -7 4 -13 9
-13 4 0 8 -8 8 -19 0 -23 39 -121 57 -142 7 -9 10 -19 6 -22 -3 -4 -1 -7 5 -7
7 0 12 -6 12 -12 0 -18 78 -89 127 -116 57 -31 136 -38 198 -17 60 21 149 89
166 128 6 15 15 27 20 27 5 0 8 3 7 8 0 4 7 25 17 47 9 22 28 75 40 117 13 42
28 86 35 97 6 12 8 21 6 21 -3 0 6 31 19 69 14 38 25 76 25 85 0 9 4 16 9 16
5 0 8 6 7 13 -1 12 43 157 70 230 8 20 14 46 14 57 0 19 17 36 27 26 7 -6 20
-73 28 -141 4 -27 10 -63 15 -80 5 -16 11 -55 15 -86 3 -31 8 -67 10 -80 5
-25 11 -58 21 -124 8 -51 11 -71 19 -120 4 -22 9 -51 10 -65 4 -31 14 -87 21
-120 3 -14 8 -43 10 -64 7 -58 8 -60 19 -68 6 -4 121 -8 258 -8 248 0 254 1
248 33 -1 5 -3 23 -5 40 -2 18 -6 39 -8 47 -3 8 -11 51 -18 95 -7 44 -18 118
-26 165 -8 47 -19 110 -24 140 -5 30 -14 80 -19 110 -6 30 -13 74 -16 97 -2
23 -9 61 -15 83 -6 23 -13 56 -14 73 -4 33 -15 108 -23 142 -2 11 -8 45 -13
75 -5 30 -11 64 -13 75 -3 11 -8 40 -12 65 -4 25 -9 54 -11 65 -5 23 -21 121
-29 180 -4 22 -13 72 -20 110 -7 39 -17 93 -21 120 -4 28 -9 57 -11 65 -2 8
-6 35 -9 60 -18 134 -120 275 -216 296 -48 11 -113 12 -124 3 -7 -5 -16 -9
-20 -7 -18 4 -95 -43 -129 -80 -35 -38 -105 -166 -105 -193 0 -8 -5 -20 -12
-27 -7 -7 -9 -12 -5 -12 4 0 1 -13 -8 -30 -8 -16 -15 -33 -15 -37 0 -13 -40
-137 -52 -157 -6 -11 -12 -33 -15 -50 -3 -17 -9 -36 -13 -41 -5 -6 -11 -22
-14 -35 -4 -21 -135 -415 -153 -460 -3 -8 -7 -21 -9 -28 -1 -8 -5 -21 -9 -30
-5 -14 -9 -13 -20 8 -8 14 -14 33 -15 43 0 9 -4 25 -9 35 -10 16 -69 189 -77
221 -8 35 -163 483 -168 488 -3 4 -6 17 -6 29 0 13 -5 26 -10 29 -6 3 -10 15
-10 26 0 10 -4 27 -9 37 -6 9 -21 42 -34 73 -26 60 -121 169 -147 169 -9 0
-21 5 -26 10 -23 23 -106 32 -159 18 -22 -5 -40 -9 -41 -7 0 2 -8 -3 -17 -11
-9 -8 -32 -26 -51 -40 -20 -14 -39 -35 -42 -47 -3 -13 -10 -23 -14 -23 -4 0
-13 -15 -20 -32 -7 -18 -16 -42 -20 -53 -9 -22 -21 -69 -26 -100 -2 -17 -11
-75 -29 -180 -3 -16 -8 -46 -11 -65 -4 -19 -8 -44 -10 -55 -1 -11 -8 -51 -14
-90 -7 -38 -13 -77 -15 -85 -2 -19 -16 -98 -21 -125 -3 -11 -9 -49 -14 -85
-10 -68 -17 -108 -25 -150 -3 -14 -8 -36 -10 -50 -3 -14 -8 -47 -11 -75 -7
-57 -12 -80 -15 -80 -1 0 -3 -11 -4 -25 -1 -14 -8 -54 -14 -90 -22 -118 -32
-185 -35 -215 -2 -16 -6 -39 -9 -50 -4 -11 -9 -38 -12 -60 -3 -22 -7 -51 -10
-65 -3 -14 -8 -45 -11 -70 -3 -25 -9 -61 -14 -80 -4 -19 -13 -71 -20 -115 -7
-44 -16 -84 -20 -88 -4 -4 -13 7 -20 25 -8 18 -17 35 -20 38 -11 9 -116 296
-125 343 -2 9 -6 21 -9 25 -3 5 -7 19 -10 33 -3 13 -8 35 -11 49 -3 14 -8 35
-11 48 -2 12 -7 34 -10 50 -14 66 -30 167 -40 262 -10 89 -11 355 -1 465 13
139 15 160 17 160 1 0 3 16 6 35 8 64 40 210 61 280 2 8 4 15 3 15 0 0 11 34
26 75 14 41 27 80 28 85 2 6 7 19 11 30 4 11 19 47 32 80 13 33 30 72 38 86 8
14 12 29 8 33 -3 3 -1 6 5 6 7 0 12 6 12 12 0 16 113 219 157 280 18 26 33 52
33 57 0 5 3 11 8 13 4 2 19 21 35 44 15 22 35 49 45 60 9 10 28 33 41 49 80
104 192 220 306 318 44 38 95 82 113 98 18 16 35 29 38 29 3 0 29 18 59 40 30
22 58 40 62 40 5 0 16 9 26 20 9 11 24 20 32 20 8 0 15 5 15 10 0 6 6 10 14
10 8 0 16 3 18 8 7 16 276 150 319 159 17 3 33 12 36 19 2 7 22 15 44 19 21 4
39 10 39 14 0 4 6 8 13 9 41 5 77 15 77 22 0 4 12 10 28 13 15 2 72 17 127 32
55 15 109 28 120 30 11 2 47 9 80 15 63 12 81 14 210 27 101 10 419 10 505 0
36 -4 83 -9 105 -11 38 -5 110 -18 165 -30 14 -3 45 -10 70 -15 40 -9 86 -20
145 -37 11 -3 32 -8 48 -11 15 -3 27 -9 27 -14 0 -5 3 -8 8 -8 14 3 73 -14 78
-22 3 -5 13 -9 22 -9 9 0 37 -10 62 -22 25 -11 50 -22 55 -23 23 -6 156 -72
235 -118 47 -27 94 -55 105 -61 27 -16 79 -49 85 -56 3 -3 31 -22 62 -43 31
-21 68 -48 81 -60 14 -12 53 -44 88 -72 95 -75 249 -234 333 -343 11 -15 25
-30 31 -34 6 -5 6 -8 0 -8 -5 0 1 -7 13 -16 12 -8 22 -21 22 -29 0 -7 4 -15 9
-17 11 -4 141 -199 169 -254 27 -53 38 -60 97 -59 44 0 50 2 47 20 -5 27 -83
162 -159 273 -35 51 -63 94 -63 97 0 2 -10 15 -22 29 -13 13 -27 30 -33 38
-67 91 -295 326 -390 403 -28 22 -56 46 -64 53 -8 7 -26 21 -40 30 -14 9 -30
22 -34 29 -4 7 -15 13 -22 13 -8 0 -15 3 -15 8 0 4 -26 23 -57 41 -32 19 -60
38 -63 41 -14 20 -293 167 -380 200 -19 8 -37 16 -40 19 -10 11 -256 90 -359
116 -177 44 -275 61 -426 73 -162 12 -591 6 -600 -8 -2 -4 -28 -7 -56 -9 -29
-1 -58 -5 -63 -9 -13 -8 -29 -11 -73 -14 -18 -2 -33 -5 -33 -8 0 -3 -9 -6 -20
-7 -21 -2 -185 -41 -210 -50 -8 -3 -19 -7 -25 -9 -34 -9 -210 -77 -260 -100
-33 -15 -65 -27 -71 -26 -6 1 -17 -5 -24 -13 -7 -8 -17 -15 -23 -15 -11 0
-208 -108 -217 -119 -3 -4 -16 -12 -30 -19 -27 -13 -53 -31 -172 -118 -43 -31
-78 -60 -78 -63 0 -4 -14 -15 -31 -25 -40 -24 -277 -260 -357 -356 -34 -41
-70 -84 -80 -96 -9 -11 -21 -27 -27 -36 -5 -9 -35 -53 -66 -99 -30 -46 -72
-113 -93 -149 -20 -36 -41 -72 -46 -80 -10 -17 -64 -132 -66 -140 0 -3 -12
-30 -26 -60 -14 -30 -29 -66 -33 -80 -4 -14 -11 -29 -15 -35 -9 -13 -36 -98
-69 -220 -43 -154 -55 -214 -67 -310 -4 -27 -8 -53 -10 -56 -7 -11 -19 -235
-19 -344 0 -112 10 -298 20 -370 3 -22 8 -51 10 -65 1 -14 6 -32 9 -40 3 -8 8
-31 10 -50 3 -19 9 -53 15 -75 5 -22 12 -51 15 -65 3 -14 14 -56 26 -95 12
-38 23 -77 25 -85 2 -8 4 -16 5 -17 2 -2 3 -6 4 -10 10 -44 77 -200 148 -344
46 -93 56 -122 52 -150 -3 -19 -7 -43 -8 -54 -2 -11 -4 -32 -5 -47 -1 -34 -28
-28 -37 9 -4 13 -9 22 -12 19 -6 -6 -12 4 -93 166 -74 147 -129 274 -122 282
4 3 2 6 -4 6 -6 0 -14 15 -18 33 -8 36 -7 31 -35 112 -11 32 -22 68 -25 80 -2
11 -10 40 -16 65 -6 25 -13 54 -15 65 -2 11 -13 63 -23 115 -10 52 -22 120
-25 150 -4 30 -10 75 -13 100 -9 60 -8 476 1 520 4 19 9 55 11 80 8 80 16 134
25 170 5 19 11 49 14 65 3 17 8 41 11 55 4 14 9 36 12 50 10 48 76 255 85 266
5 7 8 16 6 20 -1 5 5 25 14 44 8 19 28 64 43 100 32 76 95 203 104 210 3 3 7
11 9 19 2 8 12 27 23 43 11 15 18 28 14 28 -3 0 3 10 15 22 11 12 20 25 20 29
0 8 68 111 90 137 6 6 8 12 5 12 -7 0 13 25 42 52 13 12 23 27 23 34 0 6 7 14
15 18 8 3 15 11 15 18 0 8 8 21 18 30 9 8 40 42 67 74 28 32 71 80 96 106 26
26 44 49 41 52 -3 3 -1 6 5 6 5 0 26 15 45 33 31 29 67 60 178 154 57 48 219
161 240 168 11 4 20 10 20 15 0 4 19 18 43 30 23 12 56 30 72 40 115 71 455
218 565 245 50 13 68 18 85 25 11 4 47 14 80 21 33 7 62 13 65 14 16 3 108 19
123 21 9 1 18 2 20 4 4 3 36 8 95 15 31 3 71 8 87 11 49 8 455 14 455 6 0 -4
26 -7 58 -8 31 0 95 -6 142 -12 47 -7 99 -14 115 -16 54 -7 229 -47 275 -63
25 -8 54 -16 65 -18 11 -2 63 -19 115 -38 91 -33 118 -44 185 -73 17 -7 35
-13 40 -15 23 -4 252 -128 273 -146 7 -7 18 -13 23 -13 13 0 103 -61 107 -72
2 -4 8 -8 13 -8 5 0 42 -24 82 -52 76 -56 89 -67 131 -104 15 -13 29 -24 31
-24 16 0 241 -222 315 -310 84 -100 96 -115 135 -170 22 -30 42 -57 45 -60 23
-20 211 -335 205 -342 -2 -2 6 -17 19 -33 l23 -29 166 0 c135 -1 168 2 172 13
5 12 -110 256 -163 346 -40 69 -67 113 -101 165 -32 49 -50 74 -124 174 -105
141 -350 398 -482 504 -136 110 -319 242 -335 242 -5 0 -10 5 -10 10 0 6 -5
10 -11 10 -6 0 -29 13 -52 28 -23 15 -71 43 -107 62 -36 18 -66 37 -68 42 -2
4 -8 8 -13 8 -5 0 -26 7 -47 17 -20 9 -39 17 -42 18 -3 1 -34 15 -70 32 -113
54 -420 159 -519 178 -10 2 -35 8 -54 13 -20 6 -38 8 -41 5 -3 -3 -12 0 -21 7
-8 7 -15 10 -15 7 0 -3 -18 -1 -40 4 -45 10 -69 14 -190 29 -47 6 -103 13
-125 16 -62 9 -410 11 -510 3z"/>
<path d="M4307 4323 c-1 0 -36 -4 -77 -7 -73 -6 -120 -12 -130 -16 -3 -1 -9
-3 -15 -4 -19 -4 -70 -18 -85 -23 -8 -4 -19 -5 -24 -4 -4 1 -14 -4 -22 -10 -8
-6 -14 -8 -14 -5 0 4 -7 0 -16 -8 -8 -9 -22 -17 -30 -17 -32 -3 -84 -29 -84
-42 0 -5 -7 -7 -15 -3 -8 3 -19 -2 -24 -12 -6 -9 -11 -13 -11 -8 0 6 -13 -3
-30 -19 -16 -16 -30 -25 -30 -20 0 4 -14 -6 -30 -24 -17 -17 -36 -29 -42 -25
-6 4 -8 3 -5 -3 7 -11 -53 -70 -66 -65 -5 1 -5 -2 -2 -8 4 -6 -2 -19 -12 -28
-32 -30 -96 -131 -140 -222 -33 -68 -29 -61 -38 -87 -4 -13 -12 -20 -19 -16
-7 4 -6 1 1 -9 7 -8 10 -18 6 -22 -4 -3 -9 -14 -11 -24 -5 -26 -22 -123 -27
-157 -5 -38 -6 -250 -1 -290 11 -89 18 -130 24 -139 3 -6 7 -17 7 -26 6 -74
166 -390 197 -390 5 0 6 -10 3 -22 -5 -18 -4 -20 5 -8 9 13 12 13 21 -4 7 -10
28 -35 48 -54 20 -20 35 -40 33 -44 -1 -5 2 -7 6 -4 12 7 55 -30 48 -42 -3 -5
5 -8 17 -8 13 1 21 -4 19 -12 -1 -6 1 -11 5 -11 18 3 31 -2 51 -21 12 -11 25
-20 29 -20 20 0 43 -12 38 -21 -3 -5 2 -6 11 -2 12 4 15 3 10 -5 -4 -8 -2 -10
7 -6 8 3 17 -2 20 -10 4 -9 12 -16 19 -16 9 0 8 3 -2 10 -10 7 -11 10 -2 10 7
0 15 -6 18 -14 3 -8 12 -12 20 -9 8 3 14 0 14 -7 0 -7 8 -10 20 -7 11 3 20 2
20 -3 0 -8 75 -24 97 -21 6 1 14 -3 17 -8 3 -5 15 -7 26 -4 11 3 20 1 20 -4 0
-8 1201 -12 1245 -5 10 2 14 1297 3 1307 -2 3 -229 6 -504 8 l-499 2 2 -225
c1 -124 2 -231 2 -237 1 -10 55 -13 236 -13 l235 0 1 -32 c5 -109 4 -217 -1
-243 l-6 -30 -299 0 c-276 0 -371 6 -430 29 -64 25 -95 40 -95 48 0 4 -6 8
-14 8 -24 0 -109 85 -145 144 -46 76 -71 173 -71 271 0 70 3 114 10 123 2 1 3
10 5 20 12 102 143 266 253 317 31 15 64 30 73 35 9 4 42 12 75 16 65 8 1511
12 1524 4 9 -6 27 -96 35 -179 3 -29 7 -56 9 -60 3 -5 19 -275 18 -306 -1 -34
-14 -215 -17 -240 -15 -118 -29 -200 -51 -295 -3 -14 -6 -29 -8 -35 -1 -5 -6
-26 -10 -45 -8 -35 -31 -112 -43 -140 -3 -8 -7 -20 -9 -27 -7 -36 -89 -239
-98 -245 -6 -4 -8 -8 -4 -8 9 0 -62 -143 -76 -152 -6 -4 -7 -8 -3 -8 4 0 -6
-20 -23 -44 -16 -25 -30 -47 -30 -51 0 -6 -52 -88 -61 -95 -3 -3 -13 -18 -22
-35 -8 -16 -24 -39 -34 -50 -11 -11 -28 -35 -38 -52 -11 -18 -23 -33 -28 -33
-4 0 -5 6 -1 13 4 7 3 8 -2 4 -5 -5 -9 -15 -9 -23 0 -25 -194 -236 -208 -227
-6 3 -7 1 -3 -5 4 -6 -10 -26 -30 -44 -21 -18 -46 -41 -56 -51 -10 -10 -23
-15 -29 -12 -5 4 -8 1 -7 -7 2 -7 -3 -12 -10 -10 -8 1 -11 -2 -8 -7 8 -13 -21
-34 -35 -25 -7 4 -9 3 -6 -3 7 -12 -42 -49 -58 -44 -5 1 -7 -1 -3 -5 11 -10
-44 -55 -60 -49 -7 3 -11 1 -9 -3 3 -4 -1 -13 -9 -20 -8 -7 -14 -10 -14 -6 0
4 -9 -2 -20 -14 -12 -12 -27 -22 -34 -22 -8 0 -16 -7 -20 -15 -3 -8 -9 -14
-13 -13 -11 2 -73 -35 -73 -44 0 -5 -9 -8 -20 -8 -11 0 -20 -4 -20 -10 0 -5
-10 -10 -22 -10 -12 0 -18 -3 -15 -7 4 -3 -3 -11 -16 -18 -15 -8 -24 -8 -29
-1 -5 7 -8 4 -8 -6 0 -17 -10 -22 -39 -19 -7 2 -10 -2 -7 -7 7 -12 -22 -24
-36 -15 -6 3 -8 1 -4 -5 3 -6 -6 -13 -24 -17 -16 -4 -30 -11 -30 -17 0 -6 -3
-9 -6 -5 -6 5 -98 -29 -154 -58 -14 -7 -31 -10 -37 -8 -7 3 -13 -1 -13 -8 0
-7 -3 -10 -6 -6 -4 3 -18 0 -33 -7 -14 -7 -34 -12 -43 -11 -10 2 -18 0 -18 -4
0 -8 -69 -29 -125 -37 -22 -3 -46 -11 -53 -16 -7 -6 -15 -8 -18 -5 -3 3 -20 1
-37 -4 -18 -6 -45 -12 -62 -14 -16 -2 -46 -6 -65 -10 -38 -7 -50 -9 -185 -21
-209 -18 -494 -5 -670 33 -38 8 -81 16 -95 18 -14 2 -51 10 -82 18 -32 8 -60
12 -63 9 -3 -3 -5 0 -5 6 0 7 -10 12 -22 12 -22 0 -145 41 -180 61 -10 5 -24
9 -32 9 -20 0 -312 134 -326 149 -3 3 -25 17 -50 30 -62 34 -224 142 -228 152
-2 5 -8 9 -13 9 -8 0 -95 67 -149 116 -36 32 -88 74 -92 74 -6 0 -7 -8 -12
-87 -4 -51 -2 -61 10 -56 8 3 14 0 14 -5 0 -6 9 -14 20 -17 11 -3 20 -11 20
-16 0 -6 -5 -7 -12 -3 -7 4 -8 3 -4 -5 4 -6 12 -9 17 -5 14 8 60 -36 52 -49
-3 -6 -1 -7 6 -3 12 8 111 -61 111 -76 0 -4 7 -8 15 -8 8 0 15 -5 15 -11 0 -5
4 -8 9 -4 5 3 16 -4 24 -15 7 -11 17 -17 21 -13 3 4 13 -3 22 -15 8 -12 19
-20 24 -17 5 3 11 1 15 -5 3 -5 21 -17 40 -26 19 -9 32 -21 28 -27 -3 -5 -2
-8 3 -4 13 7 115 -48 106 -58 -4 -5 -2 -6 3 -2 11 6 138 -47 130 -54 -2 -3 5
-5 16 -6 11 -1 34 -9 51 -17 17 -9 37 -16 45 -16 8 0 12 -4 9 -9 -4 -5 2 -7
12 -4 10 2 24 -2 31 -10 6 -8 21 -13 31 -10 11 3 20 0 20 -6 0 -6 9 -11 21
-11 11 0 18 -4 15 -8 -3 -4 5 -8 17 -8 22 0 69 -11 97 -21 21 -9 28 -10 46
-12 8 0 13 -4 11 -8 -3 -5 9 -9 26 -10 63 -5 107 -15 107 -27 0 -6 5 -4 10 4
8 12 10 12 10 1 0 -9 8 -12 25 -9 14 3 28 1 31 -4 3 -4 10 -6 15 -3 5 4 14 3
21 -1 7 -5 26 -9 43 -10 16 -1 55 -5 85 -8 277 -32 525 -25 795 21 22 3 47 7
55 8 8 1 67 15 130 30 63 16 120 29 125 30 6 1 24 7 40 14 17 7 39 15 50 17
11 2 29 8 40 13 21 10 57 24 65 25 3 1 10 4 15 7 6 4 18 5 28 4 9 -2 17 2 17
8 0 10 88 51 125 60 6 1 12 4 15 7 3 3 57 32 120 64 63 33 119 64 125 68 15
13 116 78 121 78 2 0 12 7 22 15 9 9 64 52 122 96 94 72 372 340 410 395 8 12
38 51 65 87 28 35 57 75 65 87 8 12 22 32 31 44 66 86 252 441 265 506 0 3 9
23 19 45 9 22 18 45 19 50 2 6 17 55 35 110 18 55 35 109 37 120 6 35 15 78
29 140 8 33 16 80 19 105 4 25 8 56 10 70 26 155 25 548 -1 695 -3 17 -6 41
-8 55 -1 14 -6 44 -10 68 -6 37 -4 42 12 43 10 0 35 2 56 3 21 1 42 -3 49 -11
6 -7 8 -13 6 -13 -3 0 -1 -24 4 -52 5 -29 11 -72 13 -96 3 -24 7 -47 10 -53
11 -17 13 -422 3 -524 -13 -138 -15 -155 -23 -195 -4 -19 -8 -46 -10 -60 -2
-14 -5 -34 -8 -45 -5 -20 -20 -105 -21 -117 -1 -3 -4 -10 -8 -14 -5 -4 -8 -17
-8 -28 0 -11 -6 -38 -14 -61 -8 -22 -31 -92 -51 -155 -21 -63 -42 -124 -48
-135 -6 -11 -12 -22 -12 -25 -2 -22 -29 -68 -38 -63 -5 3 -7 2 -4 -4 10 -16
-15 -84 -29 -79 -8 3 -11 0 -8 -9 5 -13 -82 -187 -98 -193 -4 -2 -8 -9 -8 -16
0 -7 -13 -30 -30 -52 -16 -21 -30 -45 -30 -51 0 -7 -4 -13 -9 -13 -5 0 -16
-16 -26 -36 -10 -21 -22 -33 -30 -31 -7 3 -12 -1 -11 -9 2 -21 -67 -114 -81
-109 -7 2 -10 -2 -7 -9 3 -8 -8 -28 -25 -45 -17 -18 -31 -37 -31 -42 0 -6 -7
-8 -16 -5 -8 3 -13 2 -10 -3 8 -13 -34 -62 -46 -55 -6 4 -8 2 -4 -4 8 -13
-121 -145 -134 -137 -6 4 -10 3 -9 -2 4 -23 -2 -35 -17 -29 -8 3 -13 2 -10 -3
8 -12 -21 -34 -33 -26 -7 4 -8 -1 -4 -11 5 -13 3 -16 -10 -11 -10 4 -16 2 -14
-6 1 -7 -4 -11 -11 -9 -8 1 -11 -2 -8 -6 8 -13 -30 -45 -43 -37 -6 3 -11 -1
-11 -10 0 -9 -15 -22 -32 -30 -18 -7 -33 -17 -33 -22 0 -4 -3 -7 -7 -6 -5 2
-8 -1 -8 -6 0 -11 -50 -44 -67 -44 -7 0 -10 -4 -7 -9 3 -4 -8 -14 -23 -20 -15
-7 -33 -20 -40 -28 -7 -8 -13 -11 -13 -7 0 5 -7 1 -16 -8 -9 -9 -23 -14 -30
-11 -8 3 -11 0 -7 -10 4 -11 -10 -20 -20 -11 -1 1 -13 -8 -26 -20 -13 -12 -28
-20 -33 -17 -4 3 -8 0 -8 -6 0 -7 -7 -10 -15 -6 -8 3 -14 0 -12 -6 1 -7 -7
-14 -18 -16 -11 -2 -27 -10 -35 -17 -8 -7 -23 -11 -33 -10 -11 2 -16 1 -13 -2
8 -8 -53 -45 -64 -38 -4 3 -10 0 -12 -5 -2 -6 -11 -12 -20 -13 -9 -2 -22 -8
-29 -14 -25 -19 -62 -36 -55 -24 5 7 1 9 -8 5 -9 -3 -16 -10 -16 -16 0 -5 -4
-7 -9 -3 -5 3 -16 -1 -24 -10 -8 -8 -24 -12 -36 -10 -12 2 -19 0 -16 -6 6 -9
-3 -12 -37 -12 -10 0 -15 -3 -13 -7 4 -6 -28 -18 -67 -24 -3 -1 -10 -4 -14 -8
-12 -13 -26 -9 -18 5 4 6 -2 4 -13 -6 -11 -9 -23 -14 -26 -10 -4 3 -7 1 -7 -6
0 -7 -7 -11 -15 -8 -8 4 -17 2 -20 -3 -3 -5 -14 -7 -25 -5 -11 2 -20 0 -20 -5
0 -4 -11 -7 -25 -6 -13 2 -22 -1 -19 -5 3 -5 -5 -9 -18 -10 -13 0 -34 -3 -48
-6 -27 -5 -31 -6 -71 -17 -14 -4 -44 -9 -65 -11 -22 -1 -39 -4 -39 -5 0 -1
-11 -3 -25 -5 -14 -1 -47 -5 -75 -9 -265 -39 -741 -12 -979 56 -23 6 -50 12
-61 12 -11 1 -24 4 -30 7 -5 3 -30 11 -55 18 -143 42 -324 110 -390 149 -25
14 -46 24 -48 23 -3 -3 -93 40 -102 49 -3 3 -29 16 -57 30 -29 14 -53 28 -53
33 0 4 -5 7 -11 7 -9 0 -161 95 -193 121 -62 50 -75 59 -81 59 -4 0 -18 11
-31 25 -13 14 -27 25 -32 25 -5 0 -15 7 -22 15 -20 24 -30 18 -30 -19 0 -19
-4 -37 -8 -40 -4 -2 -9 -22 -10 -44 -2 -22 -5 -50 -8 -63 -8 -34 -14 -76 -21
-136 -3 -33 -9 -50 -16 -46 -6 3 -7 1 -3 -6 4 -6 11 -9 16 -6 4 3 22 -6 38
-20 16 -14 33 -25 37 -25 14 0 54 -38 47 -44 -3 -4 1 -4 11 0 12 4 17 1 17
-10 0 -10 6 -13 15 -10 8 4 15 1 15 -5 0 -6 7 -11 16 -11 8 0 12 -4 9 -10 -3
-5 0 -7 8 -4 8 3 17 -2 20 -10 4 -9 14 -16 22 -16 9 0 13 -4 10 -10 -3 -5 0
-7 8 -4 8 3 22 -2 31 -11 9 -9 24 -18 34 -20 9 -1 16 -8 14 -14 -1 -7 6 -11
15 -9 11 2 17 -2 15 -10 -1 -8 2 -11 7 -8 12 8 63 -19 54 -28 -4 -4 0 -4 9 -1
8 3 22 0 29 -7 8 -7 21 -14 29 -16 8 -2 21 -10 27 -19 7 -9 13 -12 13 -5 0 7
19 2 46 -13 26 -14 53 -25 60 -25 8 0 14 -5 14 -12 0 -6 3 -8 7 -5 3 4 17 0
30 -8 13 -9 23 -13 23 -10 0 3 10 0 23 -7 22 -12 38 -17 70 -20 9 -1 17 -9 17
-16 0 -9 7 -12 20 -9 11 3 23 1 26 -4 3 -5 15 -9 28 -9 12 0 26 -3 30 -7 3 -4
14 -8 22 -9 9 -1 23 -6 32 -10 9 -4 25 -6 36 -5 10 2 16 -1 13 -6 -3 -5 6 -10
21 -10 15 -1 52 -8 83 -16 30 -9 66 -17 80 -19 13 -2 30 -7 37 -11 6 -5 16 -6
20 -3 5 3 31 -1 58 -7 27 -7 56 -12 64 -12 8 1 21 -3 28 -8 8 -6 12 -5 12 4 0
9 3 10 8 4 4 -6 21 -11 37 -12 38 -1 81 -10 96 -19 8 -4 9 -3 5 4 -5 8 -2 10
8 6 9 -3 16 -10 16 -15 0 -5 7 -9 15 -9 8 0 15 4 15 9 0 5 24 7 53 5 125 -8
408 -3 507 10 25 3 68 8 95 11 28 2 59 6 70 9 31 6 108 19 130 22 11 1 20 3
20 4 0 1 11 4 25 6 14 2 77 18 140 34 63 17 122 31 130 32 8 0 21 5 27 10 7 6
20 8 28 4 9 -3 18 1 22 10 3 9 12 13 21 9 8 -3 18 -1 22 5 4 6 15 12 26 14 11
2 48 16 82 30 34 14 70 26 81 26 11 0 21 4 23 9 2 5 62 37 133 71 72 35 138
70 148 78 9 8 17 12 17 8 0 -4 14 1 30 11 17 9 30 20 30 24 0 4 11 10 25 13
14 4 25 11 25 16 0 6 7 10 15 10 8 0 15 5 15 10 0 6 9 10 20 10 10 0 23 6 27
13 4 7 42 35 83 62 41 27 80 55 85 60 6 6 28 24 50 40 22 16 45 34 50 40 6 6
32 29 60 51 50 39 315 300 315 310 0 4 42 53 76 88 6 6 19 25 29 41 11 17 28
36 37 43 10 7 16 18 13 23 -4 5 -2 9 3 9 5 0 36 39 68 88 32 48 62 88 67 90 4
2 7 8 7 13 0 5 12 28 27 52 42 67 133 239 133 253 0 7 3 14 8 16 10 4 52 95
52 113 0 8 5 15 10 15 6 0 10 6 10 13 0 12 11 41 55 152 4 11 9 25 10 30 2 6
13 40 25 78 12 37 23 75 25 85 2 9 4 17 5 17 1 0 3 8 5 18 2 10 7 26 11 35 4
9 8 24 9 32 2 8 8 38 14 65 16 68 19 83 26 135 3 25 9 52 11 60 3 8 10 53 15
100 5 47 12 99 14 115 12 85 8 532 -5 605 -5 25 -11 70 -14 100 -3 30 -8 66
-10 80 -16 88 -27 143 -40 203 -30 134 -90 333 -107 351 -7 8 -1894 17 -1902
9z"/>
</g>
</svg>
